<?xml version="1.0" standalone="no"?><!DOCTYPE svg PUBLIC "-//W3C//DTD SVG 1.1//EN" "http://www.w3.org/Graphics/SVG/1.1/DTD/svg11.dtd"><svg t="1538097959757" class="icon" style="" viewBox="0 0 1025 1024" version="1.1" xmlns="http://www.w3.org/2000/svg" p-id="1634" xmlns:xlink="http://www.w3.org/1999/xlink" width="200.1953125" height="200"><defs><style type="text/css"></style></defs><path d="M707.764706 514.228706a255.337412 255.337412 0 1 1 0-510.674824 255.337412 255.337412 0 0 1 0 510.674824z m0-60.235294a195.102118 195.102118 0 1 0 0-390.204236 195.102118 195.102118 0 0 0 0 390.204236z" fill="#ffffff" p-id="1635"></path><path d="M566.633412 54.633412l-25.901177 54.39247a177.272471 177.272471 0 1 0 35.418353 298.164706l37.948236 46.742588a237.507765 237.507765 0 1 1-47.465412-399.36z" fill="#ffffff" p-id="1636"></path><path d="M921.238588 503.928471a30.117647 30.117647 0 1 1-26.804706 53.910588 420.321882 420.321882 0 0 0-606.991058 376.711529 30.117647 30.117647 0 0 1-60.235295 0 480.557176 480.557176 0 0 1 694.031059-430.682353z" fill="#ffffff" p-id="1637"></path><path d="M545.852235 464.956235a30.117647 30.117647 0 0 1-14.095059 58.548706 334.607059 334.607059 0 0 0-413.214117 325.330824 30.117647 30.117647 0 1 1-60.235294 0A394.842353 394.842353 0 0 1 545.792 465.016471z" fill="#ffffff" p-id="1638"></path><path d="M889.795765 638.494118a35.538824 35.538824 0 0 1 35.84 35.358117v2.590118c0 5.421176 4.517647 9.938824 10.24 9.938823 1.807059 0 3.614118-0.421647 5.12-1.325176l2.349176-1.325176a36.141176 36.141176 0 0 1 48.911059 12.709647l27.888941 47.164235a35.117176 35.117176 0 0 1-13.131294 48.549647l-2.349176 1.264941c-4.939294 2.831059-6.565647 8.673882-3.915295 13.131294a9.577412 9.577412 0 0 0 3.614118 3.493647l2.288941 1.264941c17.287529 9.637647 23.371294 31.503059 13.251765 48.609883l-27.828706 47.164235a36.261647 36.261647 0 0 1-48.609882 12.950588l-2.349177-1.325176a11.203765 11.203765 0 0 0-10.721882-0.060235 9.637647 9.637647 0 0 0-3.614118 3.493647 8.975059 8.975059 0 0 0-1.325176 4.517647v2.650353c0.060235 9.577412-3.855059 18.672941-10.721883 25.298823a36.080941 36.080941 0 0 1-25.057882 10.179765h-55.777882a35.538824 35.538824 0 0 1-35.84-35.237647v-2.590118a9.577412 9.577412 0 0 0-3.011765-6.927059 10.360471 10.360471 0 0 0-12.348235-1.626353l-2.288941 1.385412a36.141176 36.141176 0 0 1-48.850824-12.830117l-27.888941-47.104a35.117176 35.117176 0 0 1 13.071059-48.489412l2.288941-1.325177a9.999059 9.999059 0 0 0 4.818823-6.023529 8.734118 8.734118 0 0 0-0.903529-7.04753 9.637647 9.637647 0 0 0-3.614118-3.493647l-2.349176-1.325176a35.117176 35.117176 0 0 1-13.372235-48.609882l27.888941-47.164236a36.201412 36.201412 0 0 1 48.670117-12.890353l2.409412 1.325177a11.203765 11.203765 0 0 0 10.721883 0.060235 9.637647 9.637647 0 0 0 3.614117-3.553882 8.854588 8.854588 0 0 0 1.264941-4.517647v-2.650353a35.117176 35.117176 0 0 1 10.661647-25.47953 36.080941 36.080941 0 0 1 25.178353-10.179764h55.777883z m-46.863059 45.17647a54.031059 54.031059 0 0 1-27.888941 40.83953 56.259765 56.259765 0 0 1-49.091765 2.409411l-18.432 31.141647a53.910588 53.910588 0 0 1 19.877647 57.946353 54.934588 54.934588 0 0 1-19.877647 29.274353l18.432 31.141647a55.717647 55.717647 0 0 1 60.717176 11.324236c8.854588 8.613647 14.456471 19.817412 16.082824 31.86447h38.008471a54.392471 54.392471 0 0 1 27.888941-40.598588 56.259765 56.259765 0 0 1 48.971294-2.409412l18.432-31.201882a54.512941 54.512941 0 0 1 0.180706-87.220706l-18.371765-31.141647a55.356235 55.356235 0 0 1-76.920471-43.369412h-37.948235z" fill="#ffffff" p-id="1639"></path><path d="M864.376471 849.317647a45.176471 45.176471 0 1 1 0-90.352941 45.176471 45.176471 0 0 1 0 90.352941z m0-28.069647a17.106824 17.106824 0 1 0 0-34.213647 17.106824 17.106824 0 0 0 0 34.213647z" fill="#ffffff" p-id="1640"></path></svg>
