<?xml version="1.0" standalone="no"?><!DOCTYPE svg PUBLIC "-//W3C//DTD SVG 1.1//EN" "http://www.w3.org/Graphics/SVG/1.1/DTD/svg11.dtd"><svg t="1538098165674" class="icon" style="" viewBox="0 0 1088 1024" version="1.1" xmlns="http://www.w3.org/2000/svg" p-id="1785" xmlns:xlink="http://www.w3.org/1999/xlink" width="212.5" height="200"><defs><style type="text/css"></style></defs><path d="M128 64a64 64 0 0 0-64 64v768a64 64 0 0 0 64 64h288a64 64 0 0 0 64-64V128a64 64 0 0 0-64-64H128z m0-64h288a128 128 0 0 1 128 128v768a128 128 0 0 1-128 128H128a128 128 0 0 1-128-128V128a128 128 0 0 1 128-128z" fill="#ffffff" p-id="1786"></path><path d="M157.44 352a32 32 0 1 1 0-64h243.392a32 32 0 1 1 0 64H157.504zM157.44 544a32 32 0 1 1 0-64h186.112a32 32 0 1 1 0 64H157.504zM157.44 736a32 32 0 1 1 0-64h128.896a32 32 0 1 1 0 64H157.44z" fill="#ffffff" p-id="1787"></path><path d="M614.72 64a64 64 0 0 0-64 64v768a64 64 0 0 0 64 64h288a64 64 0 0 0 64-64V128a64 64 0 0 0-64-64h-288z m0-64h288a128 128 0 0 1 128 128v768a128 128 0 0 1-128 128h-288a128 128 0 0 1-128-128V128a128 128 0 0 1 128-128z" fill="#ffffff" p-id="1788"></path><path d="M644.224 352a32 32 0 1 1 0-64h243.328a32 32 0 1 1 0 64h-243.328zM644.224 544a32 32 0 1 1 0-64h186.112a32 32 0 1 1 0 64h-186.112zM644.224 736a32 32 0 1 1 0-64h128.832a32 32 0 1 1 0 64h-128.832z" fill="#ffffff" p-id="1789"></path></svg>
